_________________________  Visit us at _________________________
  
http://p2pdl.com  ____________________________  http://p2pdl.com


There Will Be Blood 2007 BRRip 720p x264 AAC - PRiSTiNE [P2PDL]

Genre: Drama
Plot: A story about family, greed, religion, and oil, 
centered around a turn-of-the-century prospector in 
the early days of the business.
Director: Paul Thomas Anderson
Stars: Daniel Day-Lewis, Martin Stringer, Paul Dano
Rated: Rated R for some violence

Info: 
http://www.imdb.com/title/tt0469494/


General
Complete name                  : There Will Be Blood 2007 BRRip 720p x264 AAC - PRiSTiNE.mp4
Format                         : MPEG-4
File size                      : 931 MiB
Duration                       : 2h 38mn
Overall bit rate mode          : Variable
Overall bit rate               : 822 Kbps

Video
Format                         : AVC
Format/Info                    : Advanced Video Codec
Format profile                 : High 10@L4.1
Bit rate                       : 738 Kbps
Width                          : 1 280 pixels
Height                         : 536 pixels
Display aspect ratio           : 2.40:1
Frame rate mode                : Constant
Frame rate                     : 23.976 fps
Bit depth                      : 10 bits
Stream size                    : 836 MiB (90%)
Writing library                : x264 core 130 r2273 b3065e6

Audio
Format                         : AAC
Bit rate mode                  : Variable
Bit rate                       : 80.0 Kbps
Channel(s)                     : 2 channels
Channel positions              : Front: L R
Sampling rate                  : 48.0 KHz
Stream size                    : 90.7 MiB (10%)
Language                       : English

Subtitle                       : Yes (English)
Source                         : 720p.BluRay.DTS.x264-ESiR (Thanks)

Screenshots:
 
http://www.ultraimg.com/images/V684.jpg 
http://www.ultraimg.com/images/1qxLW.jpg 
http://www.ultraimg.com/images/iDAVF.jpg 
http://www.ultraimg.com/images/c9L6e.jpg 
http://www.ultraimg.com/images/5Ol1i.jpg 
http://www.ultraimg.com/images/IB9o.jpg 
http://www.ultraimg.com/images/QMazi.jpg


----------------------------------------------------------------------------------------------------


Encoded using revolutionary 10bit encoding, which enables us to provide you more crispier 
and sharper images at small sizes, just make sure you follow our instructions without a fault.
Recommend to you to use latest version of VLC player. Install K-Lite Codec Pack or shark007 codecs
in case of any kind of problem in playback (For non-VLC Media Player users). Alternatively, install
Core AVC codecs, the fastest decoder that there is coupled with Community Center Codec Pack and play
on Windows Media Player Classic. Check sample to be sure.
Enjoy!

Encoder Notes:Looking For Early Access To Anything You Can Provide DVDScr, R5, DVDR, BluRay, Direct
Audio, Music Releases and Seedboxes. We require dedicated servers, so as to do more 
and fast releases of movies.
If You Got anything to offer please contact us at "prg@hush.com".

Face book Fan Page:   
http://www.fb.me/p2pdl